<svg width="250" height="250" viewBox="0 0 250 250" fill="none" xmlns="http://www.w3.org/2000/svg">
<g clip-path="url(#clip0_277_1728)">
<path fill-rule="evenodd" clip-rule="evenodd" d="M52.0835 93.7499C52.0835 74.4112 59.7658 55.8646 73.4403 42.1901C87.1148 28.5155 105.661 20.8333 125 20.8333C144.339 20.8333 162.885 28.5155 176.56 42.1901C190.235 55.8646 197.917 74.4112 197.917 93.7499V104.531C215.583 107.062 229.167 122.26 229.167 140.625V143.229C229.165 147.746 228.26 152.217 226.505 156.378C224.749 160.54 222.178 164.308 218.944 167.461C215.709 170.614 211.877 173.088 207.672 174.737C203.466 176.386 198.974 177.176 194.458 177.062C186.75 199.146 167.146 214.031 145.99 217.802C141.094 219.594 135.302 218.75 130.208 218.75C126.064 218.75 122.09 217.104 119.16 214.173C116.23 211.243 114.583 207.269 114.583 203.125C114.583 198.981 116.23 195.007 119.16 192.076C122.09 189.146 126.064 187.5 130.208 187.5H140.625C143.071 187.499 145.483 188.073 147.667 189.175C149.851 190.277 151.745 191.876 153.198 193.844C166.698 187.417 177.083 173.844 177.083 156.25V93.7499C177.083 79.9366 171.596 66.689 161.829 56.9214C152.061 47.1539 138.814 41.6666 125 41.6666C111.187 41.6666 97.9392 47.1539 88.1717 56.9214C78.4042 66.689 72.9168 79.9366 72.9168 93.7499V158.854C72.9168 163.689 70.9963 168.325 67.5776 171.744C64.159 175.163 59.5223 177.083 54.6877 177.083C45.709 177.083 37.098 173.517 30.7492 167.168C24.4003 160.819 20.8335 152.208 20.8335 143.229V140.625C20.8312 131.856 23.9893 123.381 29.7289 116.752C35.4684 110.122 43.4048 105.784 52.0835 104.531V93.7499ZM52.0835 125.885C49.0358 126.963 46.3973 128.959 44.5317 131.599C42.6661 134.239 41.6651 137.392 41.6668 140.625V143.229C41.6668 149.531 46.146 154.792 52.0835 155.99V125.885ZM197.917 125.885V155.99C203.854 154.781 208.333 149.531 208.333 143.229V140.625C208.335 137.392 207.334 134.239 205.469 131.599C203.603 128.959 200.965 126.963 197.917 125.885Z" fill="black"/>
</g>
<defs>
<clipPath id="clip0_277_1728">
<rect width="250" height="250" fill="white"/>
</clipPath>
</defs>
</svg>
